<?xml version="1.0" encoding="UTF-8"?>
<svg id="Camada_7" data-name="Camada 7" xmlns="http://www.w3.org/2000/svg" viewBox="0 0 616.71 404.15">
  <defs>
    <style>
      .cls-1 {
        fill: #023c6e;
        stroke-width: 0px;
      }
    </style>
  </defs>
  <g>
    <g>
      <path class="cls-1" d="M228.09,219.26c-7.3-3.07-13.12-7.82-17.46-14.25-4.34-6.43-6.52-14.45-6.52-24.07,0-14.94,4-26.3,11.99-34.06,7.99-7.76,19.35-11.64,34.06-11.64s25.63,3.77,33.11,11.3c7.47,7.53,11.21,18.42,11.21,32.67,0,4.06-1.85,6.08-5.56,6.08h-63.78c0,7.65,2.66,13.53,7.99,17.64,5.33,4.11,12.74,6.17,22.24,6.17s17.38-2.09,24.68-6.26c.81-.46,1.45-.69,1.91-.69.81,0,1.45.52,1.91,1.56l4.17,7.47c.35.69.52,1.33.52,1.91,0,.81-.52,1.56-1.56,2.26-4.75,2.9-9.88,5.04-15.38,6.43-5.5,1.39-11.85,2.09-19.03,2.09-9.04,0-17.2-1.54-24.5-4.6ZM274.31,172.43c0-7.18-2-12.8-5.99-16.86-4-4.05-9.99-6.08-17.99-6.08s-14.34,2.09-18.68,6.26c-4.34,4.17-6.52,9.73-6.52,16.68h49.18Z"/>
      <path class="cls-1" d="M304.29,219.69c-.99-1.04-1.48-2.61-1.48-4.69v-105.48c0-2.2.49-3.82,1.48-4.87.98-1.04,2.63-1.56,4.95-1.56h9.21c2.32,0,4,.52,5.04,1.56,1.04,1.04,1.56,2.67,1.56,4.87v105.48c0,2.08-.49,3.65-1.48,4.69-.99,1.04-2.69,1.56-5.13,1.56h-9.21c-2.32,0-3.97-.52-4.95-1.56Z"/>
      <path class="cls-1" d="M412.08,221.26h6.12c1.85,0,3.15-.35,3.9-1.05.76-.69,1.14-1.91,1.14-3.65v-69.76c0-.71-.35-1.38-.95-1.77-10.02-6.53-22.16-9.79-36.42-9.79-10.54,0-19.78,2.02-27.72,6.08-7.93,4.05-14.05,9.82-18.33,17.29-4.29,7.47-6.43,16.07-6.43,25.81,0,12.51,3.36,22.21,10.08,29.1,6.72,6.9,15.75,10.34,27.11,10.34,7.53,0,13.93-1.01,19.2-3.04,1.5-.57,2.93-1.24,4.3-2.02.97-.55,1.34-1.76.85-2.75-1.15-2.32-1.92-5.26-2.42-8.51-.2-1.34-1.63-2.16-2.87-1.62-3.28,1.42-6.86,2.13-10.71,2.13-7.99,0-13.93-1.97-17.81-5.91-3.88-3.94-5.82-10.08-5.82-18.42,0-10.19,2.78-18.19,8.34-23.98s12.91-8.69,22.07-8.69c3.59,0,6.63.26,9.12.78,2.09.44,4.17,1.14,6.22,2.12.72.34,1.17,1.09,1.17,1.89v32.58c0,23.12,3.75,32.85,9.87,32.85Z"/>
      <path class="cls-1" d="M149.77,214.11c-4.13-42.22-26.16-81.39-60.21-106.9-1.77-1.32-.86-4.12,1.35-4.12h20.61c.53,0,1.04.18,1.45.51,27.82,22.47,46.88,53.81,53.88,88.69,8.47-19.24,12.76-39.76,12.76-61,0-8.57-.72-17.14-2.14-25.53-.24-1.4.82-2.67,2.24-2.67h17.78c1.12,0,2.09.82,2.26,1.93,1.18,7.65,1.78,15.48,1.78,23.31,0,32.89-10.23,64.06-29.62,90.37-1.2,1.62-3.11,2.56-5.13,2.56h-10.45s-2.06,0-2.06,0c-2.23,0-4.09-1.72-4.25-3.95-.08-1.15-.18-2.33-.26-3.2Z"/>
    </g>
    <path class="cls-1" d="M528.08,135.24c0,41.66-39.74,69.99-75.54,85.81-1.88.83-3.94-1-3.15-2.9,20.48-49.68.04-101.72-43-117.48-1.55-.57-1.34-2.92.14-3.66,32.66-17.12,117.95-9.7,121.56,38.24Z"/>
  </g>
  <g>
    <path class="cls-1" d="M145.23,314.44c-3.68-.72-6.59-1.75-8.73-3.08-.35-.23-.55-.43-.61-.61-.06-.17,0-.43.17-.78l1.13-1.91c.17-.35.38-.52.61-.52.12,0,.32.09.61.26,1.85,1.1,4.39,2,7.6,2.69,3.21.69,6.41,1.04,9.6,1.04,5.15,0,9.08-.88,11.77-2.65,2.69-1.77,4.04-4.65,4.04-8.64,0-2.72-.58-4.88-1.74-6.47-1.16-1.59-2.84-2.92-5.04-3.99-2.2-1.07-5.47-2.3-9.81-3.69-3.59-1.16-6.59-2.33-8.99-3.52-2.4-1.19-4.42-2.87-6.04-5.04-1.62-2.17-2.43-4.94-2.43-8.29,0-5.04,1.71-8.86,5.12-11.46,3.42-2.61,7.93-3.91,13.55-3.91,3.7,0,7.13.38,10.29,1.13,3.15.75,5.6,1.74,7.34,2.95.35.23.55.43.61.61.06.17,0,.43-.17.78l-1.13,1.91c-.17.35-.38.52-.61.52-.17,0-.38-.09-.61-.26-1.85-1.16-4.01-2.05-6.47-2.69-2.46-.64-5.54-.96-9.25-.96-9.44,0-14.16,3.79-14.16,11.38,0,2.55.53,4.57,1.61,6.08,1.07,1.51,2.56,2.72,4.47,3.65,1.91.93,4.86,2.08,8.86,3.47.46.12,1.16.35,2.08.69,4.17,1.45,7.38,2.78,9.64,3.99,2.26,1.22,4.05,2.87,5.38,4.95,1.33,2.08,2,4.83,2,8.25,0,4.86-1.74,8.61-5.21,11.25-3.47,2.64-8.51,3.95-15.11,3.95-3.24,0-6.7-.36-10.38-1.09Z"/>
    <path class="cls-1" d="M186.83,309.57c-3.79-3.97-5.69-9.36-5.69-16.2s1.9-12.23,5.69-16.2c3.79-3.97,9.25-5.95,16.37-5.95s12.58,1.98,16.37,5.95c3.79,3.97,5.69,9.37,5.69,16.2s-1.9,12.23-5.69,16.2c-3.79,3.97-9.25,5.95-16.37,5.95s-12.58-1.98-16.37-5.95ZM216.23,306.8c3.01-3.16,4.52-7.63,4.52-13.42s-1.51-10.26-4.52-13.42c-3.01-3.15-7.35-4.73-13.03-4.73s-10.02,1.58-13.03,4.73c-3.01,3.16-4.52,7.63-4.52,13.42s1.5,10.26,4.52,13.42c3.01,3.16,7.35,4.73,13.03,4.73s10.02-1.58,13.03-4.73Z"/>
    <path class="cls-1" d="M236.68,309.88c-4.14-3.76-6.21-9.18-6.21-16.24,0-4.34.94-8.22,2.82-11.64,1.88-3.42,4.52-6.06,7.9-7.95,3.39-1.88,7.28-2.82,11.68-2.82,3.47,0,6.5.32,9.08.96,2.58.64,4.93,1.71,7.08,3.21.35.23.55.43.61.61.06.17,0,.43-.17.78l-1.13,1.91c-.17.35-.38.52-.61.52-.12,0-.32-.09-.61-.26-1.74-1.22-3.69-2.14-5.86-2.78-2.17-.64-4.85-.96-8.03-.96-5.62,0-10.06,1.65-13.33,4.95-3.27,3.3-4.91,7.79-4.91,13.46,0,6.02,1.66,10.51,4.99,13.46,3.33,2.95,8.06,4.43,14.2,4.43,5.44,0,9.96-1.27,13.55-3.82.23-.17.43-.26.61-.26.23,0,.43.17.61.52l1.13,1.91c.12.35.17.55.17.61,0,.29-.2.55-.61.78-4.34,2.84-9.58,4.26-15.72,4.26-7.35,0-13.1-1.88-17.24-5.64Z"/>
    <path class="cls-1" d="M277.19,261.64c-.52-.55-.78-1.23-.78-2.04v-1.56c0-.81.26-1.49.78-2.04.52-.55,1.16-.82,1.91-.82h1.22c.75,0,1.39.28,1.91.82.52.55.78,1.23.78,2.04v1.56c0,.81-.25,1.49-.74,2.04-.49.55-1.14.82-1.95.82h-1.22c-.75,0-1.39-.27-1.91-.82ZM277.36,312.22v-37.69c0-1.33.66-2,2-2h.69c1.33,0,2,.67,2,2v37.69c0,1.33-.67,2-2,2h-.69c-1.33,0-2-.67-2-2Z"/>
    <path class="cls-1" d="M293.86,310.49c-3.47-3.36-5.21-8.13-5.21-14.33,0-4.98.97-9.34,2.91-13.07,1.94-3.73,4.78-6.64,8.51-8.73s8.18-3.13,13.33-3.13c3.18,0,6.32.46,9.42,1.39,3.1.93,5.66,2.08,7.69,3.47v36.13c0,1.33-.67,2-2,2h-.61c-.64,0-1.09-.16-1.35-.48-.26-.32-.42-.82-.48-1.52l-.26-4.17c-3.94,4.98-9.9,7.47-17.89,7.47-5.91,0-10.6-1.68-14.07-5.04ZM317.4,309.92c2.49-1.07,4.52-2.62,6.08-4.65,1.56-2.03,2.34-4.37,2.34-7.03v-20.06c-1.51-.87-3.37-1.58-5.6-2.13-2.23-.55-4.5-.83-6.82-.83-6.25,0-11.19,1.8-14.81,5.38-3.62,3.59-5.43,8.6-5.43,15.02,0,5.44,1.35,9.45,4.04,12.03,2.69,2.58,6.85,3.86,12.46,3.86,2.66,0,5.24-.53,7.73-1.61Z"/>
    <path class="cls-1" d="M337.46,312.22v-55.06c0-1.33.66-2,2-2h.69c1.33,0,2,.67,2,2v55.06c0,1.33-.67,2-2,2h-.69c-1.33,0-2-.67-2-2Z"/>
    <path class="cls-1" d="M350.14,311.62v-53.84c0-1.74.87-2.61,2.61-2.61h2.69c.93,0,1.59.22,2,.65.4.43.61,1.09.61,1.95v50.11h28.75c.93,0,1.58.19,1.95.56.38.38.56,1.03.56,1.95v1.48c0,.87-.19,1.48-.56,1.82-.38.35-1.03.52-1.95.52h-34.04c-1.74,0-2.61-.87-2.61-2.61Z"/>
    <path class="cls-1" d="M394.34,310.44c-3.42-3.39-5.12-8.21-5.12-14.46,0-4.92,1.03-9.25,3.08-12.98,2.05-3.73,5.02-6.63,8.9-8.68,3.88-2.05,8.42-3.08,13.63-3.08,3.65,0,7,.48,10.07,1.43,3.07.96,5.64,2.16,7.73,3.6v35.78c0,.75-.17,1.3-.52,1.65-.35.35-.93.52-1.74.52h-2.69c-.64,0-1.1-.14-1.39-.43-.29-.29-.49-.75-.61-1.39l-.43-3.82c-1.85,2.43-4.17,4.2-6.95,5.3-2.78,1.1-6.17,1.65-10.16,1.65-5.79,0-10.39-1.69-13.81-5.08ZM417.79,308.14c2.14-.93,3.88-2.27,5.21-4.04,1.33-1.77,2-3.81,2-6.12v-18.67c-2.9-1.45-6.34-2.17-10.33-2.17-5.33,0-9.61,1.64-12.85,4.91-3.24,3.27-4.86,7.77-4.86,13.5,0,4.81,1.17,8.34,3.52,10.6,2.35,2.26,5.89,3.39,10.64,3.39,2.31,0,4.54-.46,6.69-1.39Z"/>
    <path class="cls-1" d="M445.8,313.96c-3.56-1.04-6.38-2.34-8.47-3.91v-52.28c0-1.74.87-2.61,2.61-2.61h2.61c.93,0,1.59.22,2,.65.4.43.61,1.09.61,1.95v18.32c1.79-1.62,4.04-2.84,6.73-3.65,2.69-.81,5.66-1.22,8.9-1.22,6.37,0,11.3,1.78,14.81,5.34,3.5,3.56,5.25,8.58,5.25,15.07,0,7.59-2.01,13.46-6.04,17.63-4.02,4.17-10.03,6.25-18.02,6.25-3.76,0-7.43-.52-10.99-1.56ZM468.98,305.19c2.69-2.89,4.04-7.27,4.04-13.11,0-5.09-1.11-8.84-3.34-11.25-2.23-2.4-5.92-3.6-11.07-3.6-3.47,0-6.59.86-9.34,2.56-2.75,1.71-4.13,4.21-4.13,7.51v19.54c1.22.81,2.88,1.46,4.99,1.95,2.11.49,4.24.74,6.38.74,5.61,0,9.77-1.45,12.46-4.34Z"/>
  </g>
</svg>